<svg width="800" height="600" xmlns="http://www.w3.org/2000/svg">
 <!-- Created with Method Draw - http://github.com/duopixel/Method-Draw/ -->

 <g>
  <title>background</title>
  <rect fill="#fff" id="canvas_background" height="602" width="802" y="-1" x="-1"/>
 </g>
 <g>
  <title>Layer 1</title>
  <path id="svg_29" d="m221.8913,182.25675c-1.35739,-0.7299 -1.1793,-1.17189 2.12092,-5.26343c1.66645,-2.06601 3.02991,-3.81643 3.02991,-3.88981c0,-0.07337 -4.60165,-0.13341 -10.22593,-0.13341l-10.22593,0l0,-3.86944l0,-3.86944l10.30698,0c7.94726,0 10.21825,-0.11657 9.9195,-0.50914c-0.21311,-0.28003 -1.66683,-2.13822 -3.23049,-4.12932c-2.94752,-3.75327 -2.94659,-4.7598 0.00455,-5.07179c1.46868,-0.15526 24.33421,11.77414 25.12014,13.10569c-7.61631,4.75435 -16.72038,9.73093 -25.10671,14.11887c-0.44219,0 -1.21301,-0.21995 -1.71294,-0.48877l0,0z" stroke-width="1.5" fill="#7AD6CA"/>
  <text stroke="#000" transform="matrix(8.485380172729492,0,0,0.9625949859619141,-2457.894755154848,11.596138805150986) " xml:space="preserve" text-anchor="start" font-family="Helvetica, Arial, sans-serif" font-size="24" id="svg_2" y="305" x="315" stroke-width="0" fill="#000000"/>
  <path id="svg_7" d="m492,141" opacity="0.5" fill-opacity="null" stroke-opacity="null" stroke-width="1.5" stroke="#000" fill="none"/>
  <ellipse ry="58" rx="58" id="svg_8" cy="286.16661" cx="382.04864" stroke-width="1.5" fill="#fff"/>
  <path id="svg_9" d="m419.04864,274.16661c0,0 -58,-1 -58,-1c0,0 26,-13 26,-13c0,0 -49,14 -49,14c0,0 34,21 35,28" stroke-width="1.5" fill="#fff"/>
  <path id="svg_10" d="m375.04864,301.16661c-8,-23 -3,-33 -5,-24c-2,9 -2,9 -2,9c0,0 47,3 47,3c0,0 1,-14 1,-14" stroke-width="1.5" fill="#fff"/>
  <ellipse ry="0.08143" id="svg_11" cy="36.88766" cx="389.55974" stroke-width="1.5" stroke="#56ffff" fill="#7AD6CA"/>
  <ellipse stroke="#ffffff" id="svg_12" cy="36.96909" cx="389.55974" stroke-width="1.5" fill="#7AD6CA"/>
  <ellipse ry="21.98602" rx="24.99892" id="svg_13" cy="74" cx="384" stroke-width="1.5" stroke="#CBFFFF" fill="#6D97AB"/>
  <path stroke="#ffffff" transform="rotate(-91.25888061523438 367.99813842773443,52.68981170654294) " id="svg_19" d="m357.89107,52.65477l10.10705,-14.5657l10.10705,14.5657l-5.05353,0l0,14.63579l-10.10705,0l0.00358,-14.79861l-5.0571,0.16282z" stroke-width="1.5" fill="#ffffff"/>
  <ellipse ry="25.08035" rx="30.94329" id="svg_23" cy="171.00239" cx="226.21174" stroke-width="1.5" stroke="#0000ff" fill="#00007f"/>
  <path stroke="null" id="svg_30" d="m222.50693,178.16267c-1.23337,-0.45844 -1.07155,-0.73604 1.92714,-3.30588c1.51419,-1.29763 2.75307,-2.39704 2.75307,-2.44313c0,-0.04609 -4.18121,-0.08379 -9.2916,-0.08379l-9.2916,0l0,-2.43033l0,-2.43033l9.36524,0c7.22113,0 9.28462,-0.07321 9.01317,-0.31978c-0.19364,-0.17588 -1.51453,-1.34298 -2.93532,-2.59356c-2.67821,-2.35737 -2.67737,-2.98956 0.00414,-3.18551c1.33448,-0.09752 22.11082,7.39515 22.82494,8.23148c-6.92041,2.98613 -15.19266,6.11185 -22.81274,8.86784c-0.40179,0 -1.10218,-0.13815 -1.55643,-0.30699l0,0z" fill-opacity="null" stroke-width="1.5" fill="#7AD6CA"/>
  <path id="svg_31" d="m222.10459,181.35582c-1.3154,-0.58582 -1.14282,-0.94057 2.05532,-4.22448c1.61491,-1.6582 2.93618,-3.0631 2.93618,-3.122c0,-0.05889 -4.45931,-0.10708 -9.90962,-0.10708l-9.90962,0l0,-3.10565l0,-3.10565l9.98815,0c7.70143,0 9.90217,-0.09356 9.61266,-0.40864c-0.20652,-0.22475 -1.61527,-1.71616 -3.13056,-3.31423c-2.85634,-3.01241 -2.85545,-3.82026 0.00441,-4.07067c1.42325,-0.12461 23.58149,9.45004 24.34311,10.51875c-7.38072,3.81589 -16.20317,7.81014 -24.33009,11.33194c-0.42851,0 -1.17549,-0.17653 -1.65996,-0.39229l0,0z" stroke-width="1.5" fill="#fff"/>
 </g>
</svg>